<svg xmlns="http://www.w3.org/2000/svg" viewBox="0 0 480 300" width="480" height="300"><rect width="480" height="300" fill="#f6f8fa"/><defs><pattern id="g" width="20" height="20" patternUnits="userSpaceOnUse"><circle cx="10" cy="10" r="1.1" fill="#dfe4ea"/></pattern></defs><rect width="480" height="300" fill="url(#g)"/><rect x="40" y="44" width="112" height="146" rx="6" fill="#ffffff" stroke="#4a5361" stroke-width="2"/><rect x="54" y="58" width="70" height="8" rx="4" fill="#4a5361"/><rect x="54" y="73.5" width="44" height="5" rx="2.5" fill="#cdd4dc"/><rect x="54" y="89.5" width="84" height="5" rx="2.5" fill="#cdd4dc"/><rect x="54" y="99.5" width="84" height="5" rx="2.5" fill="#cdd4dc"/><rect x="54" y="109.5" width="84" height="5" rx="2.5" fill="#cdd4dc"/><rect x="54" y="119.5" width="56" height="5" rx="2.5" fill="#cdd4dc"/><rect x="54" y="134" width="40" height="32" rx="3" fill="#e9f0fa" stroke="#d5e1f4" stroke-width="1.5"/><path d="M58 160l8-8 8 4 8-12 8 2" fill="none" stroke="#1f55a8" stroke-width="1.8" stroke-linecap="round" stroke-linejoin="round"/><rect x="102" y="135.5" width="36" height="5" rx="2.5" fill="#cdd4dc"/><rect x="102" y="144.5" width="36" height="5" rx="2.5" fill="#cdd4dc"/><rect x="102" y="153.5" width="36" height="5" rx="2.5" fill="#cdd4dc"/><rect x="102" y="162.5" width="24" height="5" rx="2.5" fill="#cdd4dc"/><rect x="54" y="173.5" width="84" height="5" rx="2.5" fill="#cdd4dc"/><rect x="54" y="173.5" width="84" height="5" rx="2.5" fill="#cdd4dc"/><line x1="160" y1="117" x2="184" y2="117" stroke="#8f99a6" stroke-width="2" stroke-linecap="round"/><path d="M177 111L184 117L177 123" fill="none" stroke="#8f99a6" stroke-width="2" stroke-linecap="round" stroke-linejoin="round"/><line x1="222" y1="117" x2="222" y2="83" stroke="#d5e1f4" stroke-width="2.5" stroke-linecap="round"/><rect x="215" y="76" width="14" height="14" rx="3" fill="#ffffff" stroke="#5d86cc" stroke-width="2"/><line x1="222" y1="117" x2="251.4" y2="134" stroke="#d5e1f4" stroke-width="2.5" stroke-linecap="round"/><rect x="244.4" y="127" width="14" height="14" rx="3" fill="#ffffff" stroke="#5d86cc" stroke-width="2"/><line x1="222" y1="117" x2="192.6" y2="134" stroke="#d5e1f4" stroke-width="2.5" stroke-linecap="round"/><rect x="185.6" y="127" width="14" height="14" rx="3" fill="#ffffff" stroke="#5d86cc" stroke-width="2"/><circle cx="222" cy="117" r="17" fill="#1f55a8"/><circle cx="222" cy="117" r="6" fill="#ffffff"/><line x1="262" y1="117" x2="286" y2="117" stroke="#8f99a6" stroke-width="2" stroke-linecap="round"/><path d="M279 111L286 117L279 123" fill="none" stroke="#8f99a6" stroke-width="2" stroke-linecap="round" stroke-linejoin="round"/><rect x="294" y="44" width="150" height="108" rx="10" fill="#ffffff" stroke="#4a5361" stroke-width="2"/><line x1="294" y1="64" x2="444" y2="64" stroke="#e6ebf0" stroke-width="1.5" stroke-linecap="round"/><circle cx="308" cy="54" r="3.2" fill="#e0772f"/><circle cx="319" cy="54" r="3.2" fill="#cdd4dc"/><circle cx="330" cy="54" r="3.2" fill="#cdd4dc"/><rect x="308" y="75.2" width="44" height="5.5" rx="2.8" fill="#1f55a8"/><rect x="308" y="86.2" width="70" height="5.5" rx="2.8" fill="#cdd4dc"/><rect x="322" y="97.2" width="52" height="5.5" rx="2.8" fill="#4a5361"/><rect x="322" y="108.2" width="38" height="5.5" rx="2.8" fill="#cdd4dc"/><rect x="336" y="119.2" width="60" height="5.5" rx="2.8" fill="#5d86cc"/><rect x="322" y="130.2" width="30" height="5.5" rx="2.8" fill="#cdd4dc"/><rect x="308" y="141.2" width="20" height="5.5" rx="2.8" fill="#4a5361"/><rect x="294" y="166" width="150" height="86" rx="10" fill="#ffffff" stroke="#4a5361" stroke-width="2"/><circle cx="312" cy="186" r="8" fill="#1f55a8"/><path d="M308 186l3 3l5.5-6" fill="none" stroke="#ffffff" stroke-width="2" stroke-linecap="round" stroke-linejoin="round"/><rect x="328" y="183" width="90" height="6" rx="3" fill="#cdd4dc"/><circle cx="312" cy="209" r="8" fill="#1f55a8"/><path d="M308 209l3 3l5.5-6" fill="none" stroke="#ffffff" stroke-width="2" stroke-linecap="round" stroke-linejoin="round"/><rect x="328" y="206" width="70" height="6" rx="3" fill="#cdd4dc"/><circle cx="312" cy="232" r="7.5" fill="#ffffff" stroke="#e0772f" stroke-width="2"/><rect x="328" y="229" width="90" height="6" rx="3" fill="#cdd4dc"/><line x1="40" y1="226" x2="262" y2="226" stroke="#d5e1f4" stroke-width="2" stroke-linecap="round"/><circle cx="48" cy="226" r="5" fill="#1f55a8"/><circle cx="80" cy="226" r="4" fill="#5d86cc"/><circle cx="104" cy="226" r="4" fill="#5d86cc"/><circle cx="146" cy="226" r="5" fill="#1f55a8"/><circle cx="170" cy="226" r="4" fill="#5d86cc"/><circle cx="212" cy="226" r="4" fill="#5d86cc"/><circle cx="250" cy="226" r="5" fill="#1f55a8"/></svg>
